<svg width="130" height="36" viewBox="0 0 130 36" preserveAspectRatio="xMidYMid meet" xmlns="http://www.w3.org/2000/svg">
  <g id="button">
    <rect id="pillow" width="130" height="36" rx="18" ry="18" fill="green" stroke="none"/>
    <path id="icon" fill="white" d="M15,10 V26 L27,18 Z"/>
    <!--  <text x="34" y="18" font-size="16" font-family="Ubuntu" font-weight="500" fill="white" dominant-baseline="middle" text-anchor="start">Try it now!</text>-->
    <g id="text" fill="white">
      <path id="T" d="m 37.776,22.144 v -9.68 h -3.472 v -1.408 h 8.592 v 1.408 h -3.472 v 9.68 z"/>
      <path id="r" d="m 43.737999,22.144 v -7.92 q 0.496,-0.192 1.264,-0.384 0.784,-0.192 1.824,-0.192 0.304,0 0.64,0.048 0.352,0.032 0.656,0.096 0.304,0.048 0.464,0.128 l -0.288,1.328 q -0.208,-0.064 -0.624,-0.144 -0.4,-0.08 -0.976,-0.08 -0.48,0 -0.864,0.08 -0.368,0.064 -0.496,0.128 v 6.912 z"/>
      <path id="y" d="m 50.600797,25.136 q -0.448,0 -0.848,-0.096 -0.384,-0.096 -0.56,-0.192 l 0.304,-1.264 q 0.176,0.064 0.48,0.144 0.304,0.08 0.608,0.08 0.544,0 0.912,-0.176 0.384,-0.16 0.656,-0.544 0.288,-0.384 0.512,-0.976 -0.64,-1.216 -1.232,-2.56 -0.592,-1.344 -1.104,-2.8 -0.512,-1.456 -0.912,-2.944 h 1.68 q 0.16,0.72 0.4,1.536 0.256,0.816 0.56,1.696 0.304,0.864 0.656,1.744 0.352,0.864 0.72,1.68 0.4,-1.104 0.72,-2.176 0.32,-1.088 0.608,-2.192 0.288,-1.12 0.56,-2.288 h 1.616 q -0.4,1.568 -0.848,3.072 -0.448,1.488 -0.944,2.88 -0.496,1.376 -1.056,2.64 -0.416,0.96 -0.88,1.568 -0.448,0.608 -1.072,0.88 -0.608,0.288 -1.536,0.288 z"/>
      <path id="i" d="m 62.200798,22.144 v -8.336 h 1.6 v 8.336 z m 0.784,-9.76 q -0.416,0 -0.72,-0.272 -0.304,-0.288 -0.304,-0.768 0,-0.48 0.304,-0.752 0.304,-0.288 0.72,-0.288 0.432,0 0.736,0.288 0.304,0.272 0.304,0.752 0,0.48 -0.304,0.768 -0.304,0.272 -0.736,0.272 z"/>
      <path id="t" d="m 69.224789,22.32 q -1.136,0 -1.792,-0.384 -0.64,-0.4 -0.912,-1.168 -0.256,-0.768 -0.256,-1.856 V 11.52 l 1.584,-0.272 v 2.56 h 3.12 v 1.328 h -3.12 v 3.824 q 0,0.752 0.176,1.2 0.176,0.432 0.512,0.608 0.352,0.176 0.864,0.176 0.544,0 0.944,-0.112 0.416,-0.128 0.688,-0.24 l 0.272,1.264 q -0.304,0.144 -0.848,0.304 -0.544,0.16 -1.232,0.16 z"/>
      <path id="n" d="m 76.616783,22.144 v -8.048 q 0.544,-0.144 1.392,-0.288 0.848,-0.16 1.952,-0.16 1.344,0 2.08,0.48 0.752,0.48 1.056,1.344 0.304,0.848 0.304,2 v 4.672 h -1.584 v -4.352 q 0,-1.024 -0.192,-1.616 -0.176,-0.608 -0.608,-0.88 -0.432,-0.272 -1.216,-0.272 -0.528,0 -0.976,0.064 -0.432,0.048 -0.608,0.096 v 6.96 z"/>
      <path id="o" d="m 89.320778,22.352 q -1.152,0 -2.048,-0.544 -0.88,-0.544 -1.376,-1.52 -0.496,-0.992 -0.496,-2.32 0,-1.312 0.496,-2.288 0.512,-0.976 1.392,-1.52 0.896,-0.544 2.032,-0.544 1.152,0 2.032,0.544 0.88,0.544 1.376,1.52 0.512,0.976 0.512,2.288 0,1.328 -0.496,2.32 -0.496,0.976 -1.376,1.52 -0.864,0.544 -2.048,0.544 z m 0,-1.392 q 0.72,0 1.216,-0.368 0.512,-0.368 0.784,-1.04 0.288,-0.672 0.288,-1.584 0,-0.896 -0.288,-1.568 -0.272,-0.672 -0.784,-1.024 -0.496,-0.368 -1.216,-0.368 -0.704,0 -1.216,0.368 -0.512,0.352 -0.8,1.024 -0.272,0.672 -0.272,1.568 0,0.912 0.272,1.584 0.288,0.672 0.8,1.04 0.512,0.368 1.216,0.368 z"/>
      <path id="w" d="m 97.039612,22.144 q -0.352,-0.816 -0.72,-1.744 -0.352,-0.944 -0.72,-2 -0.352,-1.056 -0.688,-2.208 -0.336,-1.152 -0.64,-2.384 h 1.664 q 0.16,0.752 0.384,1.616 0.224,0.848 0.464,1.728 0.256,0.864 0.512,1.68 0.256,0.8 0.496,1.44 0.368,-1.024 0.704,-2.16 0.352,-1.136 0.64,-2.24 0.304,-1.12 0.496,-2.064 h 1.231998 q 0.208,0.944 0.496,2.064 0.288,1.104 0.624,2.256 0.352,1.136 0.704,2.144 0.256,-0.64 0.512,-1.44 0.256,-0.816 0.496,-1.68 0.256,-0.88 0.464,-1.728 0.224,-0.864 0.384,-1.616 h 1.616 q -0.32,1.232 -0.656,2.384 -0.336,1.152 -0.688,2.208 -0.352,1.056 -0.72,2 -0.352,0.928 -0.704,1.744 h -1.328 q -0.288,-0.768 -0.624,-1.68 -0.32,-0.912 -0.64,-1.904 -0.32,-1.008 -0.592,-2.064 -0.271998,1.056 -0.591998,2.064 -0.32,0.992 -0.64,1.904 -0.304,0.912 -0.608,1.68 z"/>
      <path id="!" d="m 108.1756,18.688 q -0.064,-0.56 -0.128,-1.088 -0.064,-0.544 -0.112,-1.104 -0.048,-0.576 -0.08,-1.168 -0.016,-0.608 -0.016,-1.28 v -2.992 h 1.696 v 2.992 q 0,0.672 -0.032,1.28 -0.016,0.592 -0.064,1.168 -0.048,0.56 -0.112,1.104 -0.064,0.528 -0.128,1.088 z m 0.512,3.648 q -0.48,0 -0.816,-0.304 -0.32,-0.304 -0.32,-0.8 0,-0.512 0.32,-0.816 0.336,-0.304 0.816,-0.304 0.464,0 0.784,0.304 0.336,0.304 0.336,0.816 0,0.496 -0.336,0.8 -0.32,0.304 -0.784,0.304 z"/>
    </g>
  </g>
</svg>
